<svg width="1265" height="639" viewBox="0 0 1265 639" fill="none" xmlns="http://www.w3.org/2000/svg">
<g opacity="0.5">
<path d="M1239.75 448.981C1237.03 442.55 1233.14 436.776 1228.18 431.817C1223.23 426.858 1217.45 422.966 1211.02 420.245C1205.78 418.029 1200.29 416.676 1194.63 416.199C1194.59 416.196 1194.55 416.191 1194.51 416.19C1193.02 416.067 1191.51 416.001 1190 416.001C1182.71 416.001 1175.64 417.429 1168.98 420.245C1162.55 422.966 1156.77 426.859 1151.82 431.817C1146.86 436.776 1142.96 442.55 1140.24 448.981C1137.43 455.64 1136 462.712 1136 470.001C1136 477.29 1137.43 484.361 1140.24 491.021C1142.96 497.452 1146.86 503.226 1151.82 508.185C1156.77 513.144 1162.55 517.036 1168.98 519.756C1175.64 522.573 1182.71 524.001 1190 524.001C1197.29 524.001 1204.36 522.573 1211.02 519.756C1217.45 517.036 1223.22 513.143 1228.18 508.185C1233.14 503.226 1237.03 497.452 1239.75 491.021C1242.57 484.361 1244 477.29 1244 470.001C1244 462.712 1242.57 455.64 1239.75 448.981L1239.75 448.981ZM1190 421.736C1190.61 421.736 1191.21 421.751 1191.82 421.773C1191.82 421.918 1191.83 422.064 1191.83 422.209C1191.83 428.405 1186.79 433.447 1180.59 433.447C1175.77 433.447 1171.61 430.444 1170.03 426.066C1176.12 423.287 1182.88 421.736 1190 421.736L1190 421.736ZM1215.38 511.036C1212.12 509.095 1210.08 505.577 1210.08 501.715C1210.08 495.732 1214.95 490.866 1220.93 490.866C1224.91 490.866 1228.48 493 1230.38 496.399C1226.51 502.303 1221.38 507.31 1215.38 511.036H1215.38ZM1233.5 490.907C1232.57 489.834 1231.52 488.87 1230.33 488.052C1227.56 486.14 1224.31 485.13 1220.93 485.13C1211.78 485.13 1204.34 492.569 1204.34 501.716C1204.34 506.49 1206.39 510.921 1209.81 514.011C1203.76 516.743 1197.05 518.264 1190 518.264C1163.39 518.264 1141.74 496.613 1141.74 470.001C1141.74 452.56 1151.04 437.252 1164.94 428.77C1165.95 431.188 1167.52 433.362 1169.54 435.096C1172.61 437.733 1176.54 439.186 1180.59 439.186C1189.91 439.186 1197.5 431.637 1197.56 422.332C1220.59 425.97 1238.26 445.962 1238.26 470.002C1238.26 477.488 1236.55 484.58 1233.5 490.908L1233.5 490.907Z" fill="white"/>
<path d="M1172.91 478.55C1165.64 478.55 1159.72 484.469 1159.72 491.743C1159.72 499.017 1165.64 504.935 1172.91 504.935C1180.19 504.935 1186.11 499.017 1186.11 491.743C1186.11 484.469 1180.19 478.55 1172.91 478.55ZM1172.91 499.198C1168.8 499.198 1165.46 495.854 1165.46 491.743C1165.46 487.631 1168.8 484.286 1172.91 484.286C1177.03 484.286 1180.37 487.63 1180.37 491.743C1180.37 495.854 1177.02 499.198 1172.91 499.198V499.198Z" fill="white"/>
<path d="M1172.86 457.537C1172.86 452.407 1168.69 448.232 1163.56 448.232C1158.43 448.232 1154.25 452.407 1154.25 457.537C1154.25 462.668 1158.43 466.842 1163.56 466.842C1168.69 466.843 1172.86 462.668 1172.86 457.537ZM1159.99 457.537C1159.99 455.57 1161.59 453.97 1163.56 453.97C1165.53 453.97 1167.13 455.57 1167.13 457.537C1167.13 459.505 1165.53 461.106 1163.56 461.106C1161.59 461.105 1159.99 459.505 1159.99 457.537Z" fill="white"/>
<path d="M1209.31 443.006C1201.32 443.006 1194.83 449.504 1194.83 457.489C1194.83 465.476 1201.33 471.971 1209.31 471.971C1217.3 471.971 1223.79 465.474 1223.79 457.489C1223.79 449.504 1217.3 443.006 1209.31 443.006V443.006ZM1209.31 466.237C1204.49 466.237 1200.56 462.313 1200.56 457.49C1200.56 452.666 1204.49 448.742 1209.31 448.742C1214.13 448.742 1218.06 452.666 1218.06 457.49C1218.06 462.313 1214.13 466.237 1209.31 466.237Z" fill="white"/>
</g>
<g opacity="0.5">
<path d="M943.585 331.5C965.751 258 921.417 183.335 849.665 164.665C823.415 158.249 796.58 159.415 772.08 168.165C734.164 152.999 704.415 153.583 688.665 170.499C672.331 187.999 674.081 218.915 690.415 254.499C678.749 294.749 685.165 329.749 703.249 360.084C738.249 418.999 808.249 437.669 861.914 417.249C914.999 438.833 937.164 424.249 945.334 415.499C961.666 398.583 960.5 368.833 943.584 331.499L943.585 331.5ZM696.835 178.665C707.919 166.999 729.501 165.831 756.92 175.165C728.336 189.165 707.336 214.249 696.25 238.75C686.334 212.5 685.75 190.916 696.834 178.665H696.835ZM713.167 354.25C698.001 328.584 692.751 298.835 698.583 270.25C713.167 296.5 734.749 323.915 762.748 350.165C789.582 375.831 818.748 396.249 846.163 410.25C796.583 422.5 741.163 402.084 713.163 354.25H713.167ZM770.337 342C740.003 313.416 716.672 281.915 702.672 253.915C712.006 227.081 730.088 204.331 755.172 189.75C798.338 164.084 836.837 174 846.757 176.916C952.922 204.332 975.672 356.001 861.923 405.581C832.171 392.165 800.088 369.999 770.338 342.001L770.337 342ZM937.167 407.335C926.667 418.419 905.083 419.585 877.667 410.835C907.417 395.669 926.667 372.335 937.752 347.25C948.252 374.084 947.668 395.666 937.168 407.335H937.167Z" fill="white"/>
<g filter="url(#filter0_f_277_102)">
<circle cx="682" cy="454" r="5" fill="#D9D9D9"/>
</g>
</g>
<circle cx="897" cy="553" r="5" fill="#D9D9D9"/>
<circle cx="1131" cy="141" r="5" fill="#D9D9D9"/>
<g clip-path="url(#clip0_277_102)">
<path d="M490.888 122.01C490.935 121.941 490.985 121.87 491.031 121.799C491.167 121.59 491.301 121.381 491.437 121.173C491.494 121.082 491.554 120.992 491.612 120.901C491.736 120.706 491.856 120.507 491.978 120.313C492.044 120.205 492.11 120.097 492.176 119.99C492.287 119.804 492.397 119.619 492.507 119.432C492.58 119.31 492.652 119.189 492.724 119.066C492.826 118.891 492.926 118.715 493.025 118.538C493.102 118.402 493.178 118.265 493.255 118.13C493.344 117.963 493.435 117.797 493.526 117.628C493.607 117.479 493.688 117.33 493.767 117.179C493.849 117.023 493.931 116.866 494.013 116.71C494.097 116.545 494.182 116.38 494.265 116.215C494.337 116.07 494.41 115.925 494.479 115.78C494.57 115.601 494.658 115.419 494.744 115.239C494.806 115.107 494.867 114.976 494.93 114.844C495.023 114.645 495.116 114.445 495.206 114.244C495.257 114.128 495.308 114.015 495.359 113.899C495.415 113.776 495.473 113.649 495.526 113.524C495.569 113.429 495.608 113.334 495.648 113.238C495.669 113.192 495.688 113.147 495.709 113.102C495.736 113.037 495.762 112.973 495.79 112.908C495.87 112.718 495.95 112.527 496.028 112.336C496.075 112.22 496.122 112.103 496.169 111.986C496.245 111.796 496.32 111.606 496.392 111.415C496.439 111.296 496.484 111.176 496.528 111.055C496.599 110.868 496.669 110.68 496.738 110.491C496.784 110.368 496.826 110.24 496.872 110.118C496.936 109.931 497.002 109.746 497.066 109.559C497.113 109.427 497.154 109.293 497.198 109.159C497.258 108.982 497.321 108.803 497.376 108.623C497.475 108.317 497.57 108.011 497.662 107.703C497.695 107.599 497.722 107.492 497.754 107.387C497.817 107.171 497.88 106.955 497.942 106.737C497.972 106.63 497.999 106.523 498.029 106.414C498.089 106.197 498.148 105.98 498.203 105.762C498.231 105.661 498.253 105.558 498.281 105.457C498.338 105.232 498.393 105.004 498.447 104.779C498.468 104.686 498.489 104.592 498.512 104.5C498.567 104.261 498.621 104.023 498.673 103.785C498.692 103.704 498.707 103.623 498.725 103.541C498.78 103.286 498.832 103.03 498.882 102.772C498.896 102.708 498.907 102.645 498.92 102.583C498.974 102.303 499.027 102.023 499.076 101.743C499.083 101.703 499.09 101.661 499.098 101.62C499.153 101.307 499.204 100.991 499.254 100.677C499.256 100.671 499.255 100.663 499.257 100.657C499.459 99.3718 499.612 98.082 499.72 96.7894C499.759 96.6815 499.782 96.5691 499.791 96.455C500.754 83.9393 497.331 71.3076 490.172 61.0633C490.103 60.9645 490.036 60.867 489.968 60.7698C489.848 60.6019 489.728 60.4347 489.605 60.2655C489.472 60.0825 489.339 59.9014 489.203 59.719C489.113 59.5981 489.023 59.477 488.931 59.3554C488.697 59.0468 488.459 58.7408 488.216 58.4363C488.167 58.3747 488.118 58.3143 488.068 58.253C487.84 57.9692 487.61 57.6888 487.376 57.4091C487.336 57.3605 487.295 57.3119 487.257 57.2651C486.991 56.9497 486.721 56.6356 486.447 56.327C485.366 55.104 484.229 53.9384 483.048 52.8295C483.041 52.8235 483.031 52.815 483.026 52.8082C482.658 52.4636 482.286 52.1226 481.91 51.7897C481.835 51.7244 481.763 51.661 481.69 51.5971C481.467 51.401 481.244 51.2094 481.02 51.0188C480.976 50.9827 480.933 50.9454 480.89 50.9086C480.697 50.7443 480.503 50.5824 480.307 50.4211C480.096 50.2473 479.882 50.0752 479.669 49.9036C479.542 49.802 479.419 49.7002 479.292 49.6016C478.938 49.3286 478.579 49.0545 478.216 48.783C478.135 48.7229 478.054 48.663 477.973 48.6029C477.583 48.3134 477.19 48.0268 476.789 47.7471C476.448 47.5107 476.105 47.2814 475.758 47.0544C475.742 47.0435 475.728 47.0346 475.712 47.0236C475.376 46.8036 475.04 46.5888 474.699 46.3764C474.69 46.3702 474.681 46.3646 474.673 46.3594C465.935 40.9036 455.732 37.946 445.401 38.0884C445.167 38.0915 444.934 38.0979 444.7 38.1051C441.353 38.1739 437.998 38.5598 434.682 39.2798C434.339 39.3546 433.998 39.4406 433.658 39.5222C433.542 39.5497 433.426 39.576 433.31 39.6046C433.107 39.6549 432.905 39.707 432.702 39.7585C431.159 40.153 429.631 40.6076 428.12 41.1257C428.112 41.1276 428.106 41.1324 428.098 41.1355C426.323 41.7588 424.588 42.4741 422.898 43.276C422.733 43.3538 422.568 43.4339 422.403 43.5136C422.332 43.5479 422.262 43.5809 422.194 43.6149C419.631 44.8639 417.16 46.3166 414.811 47.9663C411.133 50.5505 407.851 53.5741 405 56.9311C403.808 58.3121 402.682 59.7557 401.626 61.2576C397.708 66.9419 394.976 73.2717 393.459 79.849C393.433 79.9553 393.409 80.0631 393.386 80.1713C393.361 80.2853 393.334 80.3971 393.309 80.5111C392.153 85.7048 391.746 91.0743 392.158 96.4295C392.157 96.5078 392.164 96.5859 392.177 96.6665C392.448 99.9898 393.031 103.305 393.946 106.568C394.146 107.283 394.362 107.99 394.592 108.694C395.735 112.276 397.263 115.758 399.184 119.076C400.457 121.271 401.881 123.358 403.436 125.332C405.887 128.472 408.683 131.35 411.795 133.898C420.485 141.015 431.384 145.303 442.598 145.988C443.503 146.043 444.408 146.073 445.315 146.083C445.341 146.084 445.363 146.083 445.389 146.083C453.395 146.156 461.411 144.444 468.676 141.083C468.698 141.072 468.722 141.062 468.744 141.05C469.73 140.593 470.704 140.104 471.66 139.586C471.712 139.556 471.766 139.529 471.817 139.5C472.259 139.261 472.693 139.011 473.128 138.76C473.169 138.734 473.212 138.712 473.256 138.688C473.339 138.637 473.42 138.587 473.506 138.537C473.58 138.492 473.657 138.448 473.734 138.403C473.797 138.365 473.859 138.325 473.923 138.286C474.107 138.172 474.293 138.059 474.475 137.944C474.578 137.883 474.677 137.817 474.778 137.754C474.992 137.619 475.204 137.482 475.417 137.345C475.486 137.298 475.557 137.25 475.628 137.205C475.862 137.049 476.097 136.893 476.329 136.734C476.375 136.702 476.422 136.67 476.468 136.638C476.719 136.465 476.97 136.29 477.218 136.114C477.246 136.093 477.275 136.074 477.302 136.055C477.565 135.865 477.827 135.673 478.087 135.479C478.102 135.47 478.114 135.461 478.127 135.452C482.858 131.929 486.988 127.647 490.347 122.811C490.373 122.768 490.404 122.729 490.433 122.687C490.585 122.463 490.738 122.239 490.887 122.011L490.888 122.01ZM453.174 41.6462C459.967 42.6232 466.567 44.9495 472.527 48.5564C472.558 48.5749 472.588 48.5952 472.619 48.6137C472.975 48.8301 473.327 49.0506 473.678 49.2767C474.011 49.4917 474.343 49.7111 474.671 49.9342C474.731 49.9751 474.792 50.0141 474.852 50.0562C475.155 50.2639 475.452 50.4775 475.751 50.6914C475.869 50.7761 475.99 50.8614 476.106 50.9475C476.139 50.9699 476.172 50.9959 476.205 51.02C482.799 55.9104 488.09 62.2871 491.683 69.5469C495.165 76.6829 496.998 84.6059 496.958 92.5694C496.956 92.6455 496.956 92.7224 496.954 92.7985C496.952 93.0195 496.95 93.2401 496.946 93.4604C496.94 93.6616 496.929 93.8627 496.922 94.0641C487.138 89.3816 478.105 82.6382 471.319 74.1696C469.593 72.0165 468.017 69.7471 466.664 67.3401C465.295 64.9022 463.897 62.5302 462.153 60.3349C458.489 55.7238 453.835 51.8997 448.785 48.8936C444.253 46.1943 439.4 44.0942 434.379 42.5069C440.516 41.0846 446.899 40.7802 453.173 41.6455L453.174 41.6462ZM457.795 141.686C457.753 141.698 457.707 141.709 457.664 141.719C457.542 141.747 457.42 141.773 457.298 141.802C455.55 142.202 453.78 142.514 451.996 142.731C451.839 142.751 451.683 142.768 451.527 142.786C451.436 142.796 451.347 142.807 451.258 142.815C443.805 143.595 436.33 142.664 429.375 140.257C417.482 136.095 407.207 127.598 401.089 116.331C398.555 111.604 396.807 106.515 395.861 101.287C402.955 108.832 412.109 114.27 422.191 116.86C425.059 117.597 427.987 118.123 430.933 118.439C433.777 118.743 436.605 118.907 439.416 119.475C445.048 120.614 450.512 122.768 455.464 125.676C460.715 128.759 465.5 132.66 469.49 137.263C465.817 139.198 461.893 140.694 457.795 141.687L457.795 141.686ZM472.152 135.762C464.896 127.181 454.927 120.668 444.137 117.569C441.453 116.798 438.702 116.231 435.931 115.892C433 115.533 430.062 115.402 427.147 114.889C421.386 113.877 415.732 111.928 410.619 109.08C404.631 105.741 399.429 101.273 395.175 95.9112C394.524 87.2481 396.038 78.4142 399.793 70.3795C400.127 69.6748 400.477 68.9781 400.841 68.2871C407.185 81.5135 418.897 92.336 432.311 98.0552C436.452 99.8209 440.767 100.821 445.068 102.085C449.071 103.262 453.001 104.692 456.812 106.392C462.897 109.107 468.663 112.559 473.867 116.729C477.44 119.591 480.729 122.81 483.607 126.373C480.26 130.027 476.4 133.197 472.154 135.763L472.152 135.762ZM485.596 124.069C479.217 116.288 470.93 110.137 462.007 105.578C458.562 103.818 455.007 102.287 451.362 100.984C447.222 99.503 442.957 98.5521 438.767 97.2431C430.917 94.7886 423.713 90.635 417.546 85.2014C411.281 79.6805 406.017 72.7742 402.686 65.0949C403.139 64.3767 403.606 63.6667 404.088 62.9672C408.386 56.8381 413.907 51.7788 420.278 48.052C423.053 46.4516 425.962 45.1235 428.963 44.0754C440.521 47.0091 451.952 52.5232 459.593 61.9304C461.379 64.128 462.744 66.5004 464.146 68.9456C465.511 71.33 467.062 73.6084 468.765 75.7654C472.367 80.3282 476.64 84.3747 481.246 87.9116C486.035 91.5911 491.24 94.7178 496.717 97.2605C496.557 98.869 496.32 100.474 496.003 102.069C495.989 102.133 495.978 102.2 495.965 102.263C495.92 102.474 495.877 102.686 495.831 102.896C495.812 102.985 495.794 103.073 495.773 103.159C495.726 103.369 495.679 103.579 495.627 103.786C495.61 103.869 495.59 103.952 495.57 104.034C495.515 104.255 495.461 104.478 495.403 104.7C495.389 104.759 495.373 104.817 495.358 104.876C495.29 105.138 495.219 105.4 495.147 105.661C495.135 105.703 495.123 105.743 495.111 105.785C495.031 106.069 494.949 106.352 494.863 106.633C494.861 106.641 494.859 106.648 494.857 106.656C492.919 113.089 489.731 118.981 485.597 124.069L485.596 124.069Z" fill="white" fill-opacity="0.5"/>
</g>
<circle cx="478" cy="37" r="5" fill="#D9D9D9"/>
<path d="M411.84 537.72C409.08 532.32 404.52 528.36 399.24 526.2C396.36 524.999 393.24 524.4 390 524.4C383.52 524.4 377.64 526.92 373.2 531C373.08 531.12 372.96 531.12 372.84 531.24V531.36C368.88 535.2 366.24 540.48 365.64 546.36L365.52 546.48V546.599C360.96 549.48 358.92 552.359 359.4 554.88C359.88 557.52 362.88 559.319 368.28 560.4C372.6 568.56 380.881 573.72 390 573.72C402.72 573.72 413.04 564.241 414.36 551.76C418.921 548.88 421.08 546 420.48 543.36C420 540.72 417 538.8 411.84 537.72L411.84 537.72ZM391.68 559.56C384.6 560.88 378.119 563.16 373.68 565.68C372.24 564.24 370.92 562.56 369.839 560.64C375.239 557.64 382.68 555 390.599 553.56C399.119 552 407.039 551.64 413.039 552.6C412.679 554.759 412.079 556.92 411.239 558.84C405.84 558 398.76 558.24 391.68 559.56L391.68 559.56ZM410.64 559.92C409.68 561.84 408.48 563.52 407.039 564.96C403.439 564.36 398.519 564.6 393.479 565.44C388.199 566.4 383.399 568.08 380.279 570.12L380.398 570.239C378.239 569.279 376.319 567.959 374.639 566.519C378.959 564.12 385.199 561.959 391.919 560.76C398.759 559.44 405.479 559.2 410.64 559.92L410.64 559.92ZM413.159 551.4C407.159 550.439 399.119 550.799 390.359 552.36C382.319 553.92 374.639 556.439 369.239 559.56C368.279 557.76 367.679 555.84 367.2 553.8C372.72 550.68 380.76 547.92 389.4 546.24C398.4 544.68 406.68 544.32 412.92 545.28C413.16 546.48 413.16 547.8 413.16 549.12C413.279 549.721 413.279 550.56 413.16 551.16L413.159 551.4ZM366.719 549C366.719 548.4 366.719 547.68 366.839 547.08C372.239 543.839 380.039 541.199 388.319 539.64C396.478 538.079 404.639 537.84 410.879 538.799C411.719 540.479 412.319 542.159 412.679 544.08C406.319 543.239 398.039 543.6 389.159 545.159C380.638 546.839 372.598 549.479 366.959 552.599C366.841 551.4 366.72 550.2 366.72 549L366.719 549ZM410.279 537.36C404.279 536.519 396.48 536.88 387.959 538.44C379.919 539.879 372.359 542.519 366.959 545.519C367.319 543.36 367.919 541.199 368.759 539.279C373.199 536.639 379.799 534.359 386.999 532.919C394.079 531.599 401.159 531.359 406.319 532.199C407.879 533.759 409.199 535.439 410.279 537.36L410.279 537.36ZM398.879 527.4C400.919 528.24 402.959 529.44 404.639 530.879C399.599 530.279 393.119 530.639 386.639 531.839C380.16 533.04 374.039 535.08 369.599 537.36C370.679 535.32 372.12 533.519 373.8 531.96C376.8 530.28 381.12 528.72 385.8 527.88C390.84 526.92 395.519 526.8 398.879 527.4V527.4ZM389.999 525.6C391.2 525.6 392.279 525.72 393.359 525.84C390.959 525.96 388.319 526.2 385.679 526.681C383.159 527.16 380.759 527.761 378.599 528.601C381.959 526.68 385.799 525.6 389.999 525.6V525.6ZM360.599 554.52C360.239 552.6 361.919 550.32 365.399 547.92V549C365.399 552.36 366.119 555.719 367.439 558.96C363.359 558 360.959 556.439 360.599 554.52L360.599 554.52ZM393.959 572.04C394.199 572.04 394.319 571.92 394.559 571.92H395.039C394.559 571.92 394.319 572.04 393.959 572.04V572.04ZM398.999 570.6C397.919 570.36 396.479 570.48 394.319 570.72C392.639 571.08 390.959 571.68 389.759 572.4C386.879 572.4 384.239 571.799 381.599 570.839C384.599 569.04 388.919 567.599 393.719 566.76C398.159 565.919 402.599 565.68 405.959 566.159C403.92 567.96 401.639 569.52 398.999 570.6L398.999 570.6ZM414.479 550.079V549C414.479 545.64 413.759 542.28 412.439 539.04C416.639 540 418.918 541.56 419.279 543.479C419.639 545.4 417.959 547.799 414.479 550.08L414.479 550.079Z" fill="white"/>
<path d="M436.56 548.4C436.2 548.4 435.96 548.64 435.96 549C435.96 550.32 435.84 551.521 435.72 552.841V553.081C435.72 553.441 435.96 553.681 436.32 553.681C436.68 553.681 436.92 553.441 436.92 553.081V552.841C437.04 551.521 437.16 550.201 437.16 548.881C437.159 548.64 436.92 548.4 436.56 548.4V548.4Z" fill="white"/>
<path d="M350.04 571.68C349.92 571.44 349.561 571.32 349.2 571.44C348.96 571.559 348.84 571.919 348.96 572.28C350.399 574.801 351.96 577.08 353.88 579.24C353.999 579.36 354.12 579.48 354.359 579.48C354.479 579.48 354.6 579.48 354.719 579.361C354.96 579.12 354.96 578.761 354.839 578.52C353.04 576.36 351.48 574.08 350.04 571.68L350.04 571.68Z" fill="white"/>
<path d="M344.64 556.08C344.64 555.72 344.28 555.48 343.92 555.6C343.56 555.6 343.32 555.96 343.441 556.32C343.92 559.08 344.52 561.96 345.481 564.6C345.6 564.841 345.84 564.96 346.081 564.96H346.321C346.681 564.841 346.801 564.481 346.681 564.241C345.72 561.601 345 558.841 344.64 556.08V556.08Z" fill="white"/>
<path d="M351.12 523.44C350.88 523.2 350.52 523.32 350.28 523.68C348.72 526.08 347.4 528.6 346.32 531.24C346.2 531.6 346.32 531.841 346.68 532.081H346.92C347.16 532.081 347.4 531.961 347.52 531.721C348.6 529.2 349.8 526.681 351.361 524.401C351.48 523.92 351.361 523.561 351.12 523.44L351.12 523.44Z" fill="white"/>
<path d="M343.44 548.4C343.8 548.4 344.04 548.16 344.04 547.8C344.16 545.04 344.4 542.279 345 539.52C345.12 539.16 344.881 538.919 344.521 538.8C344.161 538.68 343.921 538.919 343.801 539.279C343.201 542.039 342.841 544.919 342.841 547.8C342.841 548.16 343.08 548.4 343.44 548.4V548.4Z" fill="white"/>
<path d="M369.36 507.84C369.48 507.84 369.48 507.84 369.6 507.721C372.121 506.52 374.64 505.561 377.4 504.721C377.76 504.601 377.879 504.241 377.76 504.001C377.64 503.641 377.28 503.521 377.04 503.641C374.28 504.361 371.64 505.441 369.12 506.641C368.879 506.761 368.64 507.121 368.879 507.481C369 507.72 369.24 507.84 369.36 507.84L369.36 507.84Z" fill="white"/>
<path d="M362.76 511.32C362.52 511.08 362.16 510.96 361.92 511.2C359.639 512.88 357.48 514.801 355.56 516.84C355.319 517.081 355.319 517.44 355.56 517.681C355.679 517.8 355.8 517.8 355.92 517.8C356.039 517.8 356.279 517.681 356.399 517.56C358.319 515.52 360.359 513.72 362.639 512.04C362.88 511.92 362.88 511.56 362.76 511.32L362.76 511.32Z" fill="white"/>
<path d="M414.96 587.52C412.68 589.08 410.161 590.28 407.64 591.36C407.28 591.48 407.161 591.84 407.28 592.201C407.4 592.441 407.64 592.561 407.88 592.561H408.121C410.761 591.481 413.28 590.161 415.681 588.601C415.921 588.361 416.041 588.001 415.801 587.76C415.68 587.4 415.32 587.4 414.96 587.52L414.96 587.52Z" fill="white"/>
<path d="M435 560.88C434.64 560.76 434.4 561 434.28 561.24C433.56 563.88 432.481 566.52 431.28 569.04C431.161 569.28 431.28 569.64 431.521 569.88C431.64 569.88 431.64 570 431.761 570C432.001 570 432.24 569.88 432.24 569.64C433.441 567.119 434.521 564.359 435.24 561.719C435.6 561.36 435.36 561 435 560.88V560.88Z" fill="white"/>
<path d="M427.08 576.24C425.4 578.52 423.6 580.56 421.56 582.48C421.319 582.72 421.319 583.08 421.56 583.321C421.679 583.44 421.8 583.561 422.039 583.561C422.159 583.561 422.279 583.561 422.399 583.441C424.439 581.521 426.359 579.361 428.039 577.081C428.279 576.841 428.159 576.481 427.919 576.241C427.56 575.88 427.2 575.88 427.08 576.24L427.08 576.24Z" fill="white"/>
<path d="M383.16 594.48C380.4 594.12 377.76 593.4 375.12 592.56C374.76 592.44 374.52 592.56 374.4 592.92C374.281 593.28 374.4 593.52 374.76 593.64C377.4 594.6 380.281 595.2 383.04 595.68H383.16C383.4 595.68 383.76 595.439 383.76 595.2C383.76 594.841 383.521 594.48 383.16 594.48H383.16Z" fill="white"/>
<path d="M399.72 593.88C397.08 594.48 394.2 594.84 391.44 594.84C391.08 594.84 390.84 595.08 390.84 595.44C390.84 595.8 391.08 596.04 391.44 596.04C394.32 595.921 397.08 595.561 399.96 594.961C400.32 594.841 400.44 594.601 400.44 594.241C400.32 594 400.08 593.88 399.72 593.88H399.72Z" fill="white"/>
<path d="M367.56 589.08C365.16 587.76 362.88 586.2 360.72 584.4C360.48 584.16 360.12 584.28 359.879 584.52C359.639 584.76 359.76 585.12 359.999 585.36C362.159 587.16 364.559 588.84 367.079 590.16C367.199 590.16 367.319 590.279 367.319 590.279C367.559 590.279 367.679 590.16 367.799 589.919C367.92 589.56 367.8 589.2 367.56 589.08L367.56 589.08Z" fill="white"/>
<path d="M385.8 503.28H386.16C387.24 503.161 388.32 503.161 389.4 503.04V503.52C389.4 507.48 392.641 510.72 396.601 510.72C400.561 510.72 403.801 507.48 403.801 503.52C403.801 499.56 400.561 496.319 396.601 496.319C393.241 496.319 390.361 498.719 389.641 501.84C388.44 501.84 387.241 501.959 386.041 502.08H385.8C385.44 502.08 385.2 502.44 385.2 502.68C385.201 503.04 385.44 503.28 385.8 503.28L385.8 503.28ZM396.601 497.52C399.961 497.52 402.601 500.16 402.601 503.52C402.601 506.88 399.961 509.52 396.601 509.52C393.241 509.52 390.601 506.88 390.601 503.52C390.601 500.16 393.241 497.52 396.601 497.52Z" fill="white"/>
<circle cx="257" cy="524" r="5" fill="#D9D9D9"/>
<circle cx="5" cy="92" r="5" fill="#D9D9D9"/>
<circle cx="703" cy="527" r="5" fill="#D9D9D9"/>
<circle cx="574" cy="131" r="5" fill="#D9D9D9"/>
<g filter="url(#filter1_f_277_102)">
<circle cx="326" cy="97" r="5" fill="#D9D9D9"/>
</g>
<g filter="url(#filter2_f_277_102)">
<circle cx="451" cy="258" r="5" fill="#D9D9D9"/>
</g>
<g filter="url(#filter3_f_277_102)">
<circle cx="292" cy="188" r="5" fill="#D9D9D9"/>
</g>
<g filter="url(#filter4_f_277_102)">
<circle cx="557" cy="563" r="5" fill="#D9D9D9"/>
</g>
<defs>
<filter id="filter0_f_277_102" x="673" y="445" width="18" height="18" filterUnits="userSpaceOnUse" color-interpolation-filters="sRGB">
<feFlood flood-opacity="0" result="BackgroundImageFix"/>
<feBlend mode="normal" in="SourceGraphic" in2="BackgroundImageFix" result="shape"/>
<feGaussianBlur stdDeviation="2" result="effect1_foregroundBlur_277_102"/>
</filter>
<filter id="filter1_f_277_102" x="317" y="88" width="18" height="18" filterUnits="userSpaceOnUse" color-interpolation-filters="sRGB">
<feFlood flood-opacity="0" result="BackgroundImageFix"/>
<feBlend mode="normal" in="SourceGraphic" in2="BackgroundImageFix" result="shape"/>
<feGaussianBlur stdDeviation="2" result="effect1_foregroundBlur_277_102"/>
</filter>
<filter id="filter2_f_277_102" x="442" y="249" width="18" height="18" filterUnits="userSpaceOnUse" color-interpolation-filters="sRGB">
<feFlood flood-opacity="0" result="BackgroundImageFix"/>
<feBlend mode="normal" in="SourceGraphic" in2="BackgroundImageFix" result="shape"/>
<feGaussianBlur stdDeviation="2" result="effect1_foregroundBlur_277_102"/>
</filter>
<filter id="filter3_f_277_102" x="283" y="179" width="18" height="18" filterUnits="userSpaceOnUse" color-interpolation-filters="sRGB">
<feFlood flood-opacity="0" result="BackgroundImageFix"/>
<feBlend mode="normal" in="SourceGraphic" in2="BackgroundImageFix" result="shape"/>
<feGaussianBlur stdDeviation="2" result="effect1_foregroundBlur_277_102"/>
</filter>
<filter id="filter4_f_277_102" x="548" y="554" width="18" height="18" filterUnits="userSpaceOnUse" color-interpolation-filters="sRGB">
<feFlood flood-opacity="0" result="BackgroundImageFix"/>
<feBlend mode="normal" in="SourceGraphic" in2="BackgroundImageFix" result="shape"/>
<feGaussianBlur stdDeviation="2" result="effect1_foregroundBlur_277_102"/>
</filter>
<clipPath id="clip0_277_102">
<rect width="150" height="150" fill="white" transform="translate(418.628) rotate(34.81)"/>
</clipPath>
</defs>
</svg>
