<svg width="30" height="30" viewBox="0 0 30 30" fill="none" xmlns="http://www.w3.org/2000/svg">
<path fill-rule="evenodd" clip-rule="evenodd" d="M12 22.875C12.2069 22.875 12.375 22.7069 12.375 22.5V16.875C12.375 16.1791 12.6517 15.5114 13.1438 15.0188C13.6365 14.5268 14.3041 14.25 15 14.25C15.6959 14.25 16.3636 14.5267 16.8562 15.0188C17.3482 15.5114 17.625 16.1791 17.625 16.875V22.5C17.625 22.7069 17.7931 22.875 18 22.875H21.4882C21.8557 22.875 22.2089 22.7287 22.4684 22.4685C22.7287 22.209 22.8749 21.8558 22.8749 21.4883V12.3752H24.4304C24.7612 12.3752 25.0598 12.1756 25.1856 11.8705C25.3124 11.5644 25.2425 11.2127 25.0087 10.9786C23.0594 9.02933 17.8845 3.85364 15.9808 1.95079C15.7205 1.69046 15.3673 1.54431 14.9998 1.54431C14.6323 1.54431 14.2791 1.69063 14.0187 1.95079C12.1153 3.85356 6.94045 9.02907 4.99087 10.9786C4.75684 11.2127 4.68719 11.5644 4.81392 11.8705C4.93998 12.1756 5.23847 12.3752 5.56911 12.3752H7.12469V21.4883C7.12469 21.8558 7.27101 22.209 7.53117 22.4685C7.79066 22.7288 8.1439 22.875 8.51135 22.875H12Z" fill="white"/>
</svg>
