<svg width="50" height="47" viewBox="0 0 50 47" fill="none" xmlns="http://www.w3.org/2000/svg">
<path fill-rule="evenodd" clip-rule="evenodd" d="M20 38.125C20.3448 38.125 20.625 37.8449 20.625 37.5V28.125C20.625 26.9652 21.0862 25.8524 21.9063 25.0313C22.7274 24.2113 23.8401 23.75 25 23.75C26.1598 23.75 27.2725 24.2112 28.0937 25.0313C28.9137 25.8524 29.375 26.9652 29.375 28.125V37.5C29.375 37.8449 29.6551 38.125 30 38.125H35.8136C36.4261 38.125 37.0148 37.8812 37.4473 37.4476C37.8811 37.0151 38.1247 36.4263 38.1247 35.8139V20.6253H40.7174C41.2687 20.6253 41.7662 20.2928 41.976 19.7841C42.1872 19.2741 42.0709 18.6878 41.6811 18.2978C38.4322 15.0489 29.8075 6.42277 26.6347 3.25134C26.2008 2.81747 25.6121 2.57388 24.9996 2.57388C24.3871 2.57388 23.7984 2.81775 23.3645 3.25134C20.1921 6.42263 11.5674 15.0485 8.31808 18.2978C7.92802 18.6878 7.81195 19.2741 8.02316 19.7841C8.23326 20.2928 8.73075 20.6253 9.28181 20.6253H11.8744V35.8139C11.8744 36.4264 12.1183 37.0151 12.5519 37.4476C12.9844 37.8814 13.5731 38.125 14.1855 38.125H20Z" fill="#1540C3"/>
</svg>
